<svg xmlns="http://www.w3.org/2000/svg" xmlns:xlink="http://www.w3.org/1999/xlink" width="1080" zoomAndPan="magnify" viewBox="0 0 810 1012.49997" height="1350" preserveAspectRatio="xMidYMid meet" version="1.0"><defs><g/><clipPath id="c8e6315ca4"><path d="M 58 302.953125 L 751.664062 302.953125 L 751.664062 629.523438 L 58 629.523438 Z M 58 302.953125 " clip-rule="nonzero"/></clipPath><clipPath id="ad4dabd587"><path d="M 278.683594 302.953125 L 745.625 302.953125 C 747.707031 302.953125 749.621094 304.097656 750.609375 305.929688 C 751.597656 307.761719 751.503906 309.988281 750.359375 311.730469 L 547.566406 620.746094 C 543.972656 626.222656 537.863281 629.523438 531.316406 629.523438 L 64.375 629.523438 C 62.292969 629.523438 60.378906 628.378906 59.390625 626.546875 C 58.402344 624.714844 58.496094 622.488281 59.640625 620.746094 L 262.433594 311.730469 C 266.027344 306.253906 272.136719 302.953125 278.683594 302.953125 Z M 278.683594 302.953125 " clip-rule="nonzero"/></clipPath></defs><g clip-path="url(#c8e6315ca4)"><g clip-path="url(#ad4dabd587)"><path fill="#000000" d="M 53.882812 302.953125 L 755.492188 302.953125 L 755.492188 629.523438 L 53.882812 629.523438 Z M 53.882812 302.953125 " fill-opacity="1" fill-rule="nonzero"/></g></g><g fill="#ffffff" fill-opacity="1"><g transform="translate(260.629256, 553.679963)"><g><path d="M 153.609375 -141.421875 L 100.03125 -141.421875 L 100.03125 0 L 54.84375 0 L 54.84375 -141.421875 L 1.78125 -141.421875 L 1.78125 -177.984375 L 153.609375 -177.984375 Z M 153.609375 -141.421875 "/></g></g></g><g fill="#ffffff" fill-opacity="1"><g transform="translate(401.273849, 553.679963)"><g/></g></g><g fill="#ffffff" fill-opacity="1"><g transform="translate(445.700288, 553.679963)"><g><path d="M 121.359375 -177.984375 L 121.359375 -57.640625 C 121.359375 -38.847656 115.898438 -24.203125 104.984375 -13.703125 C 94.066406 -3.210938 79.046875 2.03125 59.921875 2.03125 C 35.710938 2.03125 15.316406 -7.445312 -1.265625 -26.40625 L 19.546875 -56.625 C 32.242188 -43.414062 44.6875 -36.8125 56.875 -36.8125 C 69.5625 -36.8125 75.90625 -44.09375 75.90625 -58.65625 L 75.90625 -141.421875 L 14.984375 -141.421875 L 14.984375 -177.984375 Z M 121.359375 -177.984375 "/></g></g></g></svg>